<svg xmlns="http://www.w3.org/2000/svg" width="110" height="143" fill="none" xmlns:v="https://vecta.io/nano"><style><![CDATA[.B{opacity:.15}.C{stroke:#000}.D{fill:#000}.E{fill:#fff}.F{fill:#ecbdb7}.G{stroke-linejoin:round}.H{stroke-width:.945}.I{stroke-linecap:round}]]></style><path d="M66.621 17.93l6.314 3.788c13.447-20.109-1.453-25.96-6.314-3.788zM27.136 122.293c2.801-1.014 5.096-.171 7.287 1.054-2.286 24.082-17.532 19.201-7.287-1.054z" class="C F"/><path d="M29.639 121.857c-1.721 6.227-4.214 12.769-2.557 17.616-3.456.582-5.644-5.916.053-17.18a7.17 7.17 0 0 1 2.504-.436z" class="B D"/><path d="M62.964 121.468c2.572-1.503 4.981-1.088 7.357-.279 2.099 24.099-13.777 22.051-7.357.279z" class="C F"/><path d="M75.551 3.768c.415-.019.797.064 1.143.232-3.595 4.257-5.175 10.081-6.67 15.971l-3.402-2.041c2.126-9.7 6.174-14.037 8.93-14.162z" class="B D"/><path d="M53.983 1C51.92 3.396 51.074 5.725 50.5 7.696c4.024-1.515 6.126-2.518 12.5-2.858-1.613 1.4-4.17 2.989-3.584 3.949 31.088 4.466 30.465 29.022 30.465 59.398 0 33.628.521 60.889-42.832 60.889s-42.83-27.261-42.83-60.889c0-31.45 1.539-56.665 36.377-59.799C44.428 4.917 48.96 2.566 53.983 1z" class="C F G"/><g class="D"><path d="M73.388 78.304c-3.27 5.301-6.037 3.843-8.569 2.296-2.641-1.612-.734-4.302-1.991-5.341S54.695 66 64.602 65.232l9.284 1.442-.498 11.629zM44.502 27.293l-2.471 42.188c-11.411-.405-23.803-8.277-21.182-23.967s15.997-18.45 23.653-18.22z" class="B"/></g><g class="C"><path d="M75.254 50.002c0 10.435 1.893 18.894 12.328 18.894s18.895-8.459 18.895-18.894-8.46-18.894-18.895-18.894-12.328 8.459-12.328 18.894zM44.903 69.7c-11.716 0-21.213-9.497-21.213-21.213s9.497-21.213 21.213-21.213 21.213 9.497 21.213 21.213S56.619 69.7 44.903 69.7z" class="E G"/><path d="M74.841 69.677s1.222 6.646-.758 8.649-5.463 2.194-7.702 0 1.01-9.028 1.01-9.028l7.45.379z" class="E"/><path d="M72.373 49.851c0 12.123 2.221 21.951 14.463 21.951s22.166-9.828 22.166-21.951S99.077 27.9 86.835 27.9s-14.463 9.828-14.463 21.951z" class="G"/></g><path d="M74.638 64.772l2.377 1.262s.364 3.221.248 6.664c-4.772-.011-9.186.528-10.246 6.201-.497-.681-.925-1.492-1.271-2.443-1.531-4.202 8.892-11.684 8.892-11.684z" class="B D"/><path d="M61.887 71.006c2.317 4.013 4.368 1.523 8.733.353s5.772 1.931 7.091-.353-1.185-7.917-7.596-6.654-10.544 2.641-8.228 6.654z" class="C F G"/><path d="M71.687 66.849c-2.669 0-4.833-1.337-4.833-2.987s2.164-2.987 4.833-2.987 4.833 1.337 4.833 2.987-2.164 2.987-4.833 2.987z" class="D"/><path d="M43.1 8.217c-32.01 3.872-45.818 108.478 0 120.777-39.37-1.636-38.881-28.236-38.881-60.808 0-32.182 1.63-57.822 38.881-59.969z" fill="#521745" class="B"/><path d="M25.571 17.862c-1.53 2.556-3.841 3.353-6.314 3.788-15.972-17.457 7.641-28.359 6.314-3.788zM86.826 90.92c-2.766 1.106-3.919 3.261-4.74 5.634 17.724 16.463 25.862 2.678 4.74-5.634z" class="C F"/><g class="D"><path d="M54.626 62.759a4.8 4.8 0 0 1-4.801-4.801c0-2.651 2.15-4.801 4.801-4.801s4.801 2.15 4.801 4.801-2.15 4.801-4.801 4.801zm32.834-.593a4.8 4.8 0 0 1-4.801-4.801c0-2.651 2.15-4.801 4.801-4.801s4.801 2.15 4.801 4.801-2.15 4.801-4.801 4.801z"/><path d="M44.502 27.293c-14.954 4.385-21.818 31.334-2.471 42.188-10.5-1.434-18.33-10.397-18.342-20.994.009-11.553 9.261-20.975 20.813-21.193z" class="B"/></g><path d="M56.45 57.14c-.804 0-1.455-.651-1.455-1.455s.651-1.455 1.455-1.455 1.455.652 1.455 1.455-.651 1.455-1.455 1.455zm32.767-.568c-.804 0-1.455-.652-1.455-1.455s.652-1.455 1.455-1.455 1.455.651 1.455 1.455-.651 1.455-1.455 1.455z" class="E"/><path d="M71.88 71.123c.174 2.835.173 7.154-1.571 8.778" class="C"/><path d="M65.645 120.125c-.023 6.099-2.578 14.049 1.324 17.279-3.537 2.872-7.925-3.053-4.006-16.343.913-.534 1.804-.818 2.682-.936z" class="B D"/><path d="M4.233 63.591c18.906 13.761 41.175 22.606 66.27 27.322 9.627-3.45 17.246-7.832 19.37-15.536.558 16.397-6.653 28.139-2.278 41.144-10.699 7.076-17.237 21.402-85.595.401 5.419-9.041.398-33.44 2.233-53.33z" class="C E"/><path d="M47.539 85.169c-4.652 1.438-7.122 3.724-13.958 4.313 1.239-2.612 2.396-5.507 2.195-8.321l-1.647-.656-10.3 5.669c1.491-3.123-.018-7.184-1.11-11.114l24.821 10.109z" class="B D"/><g class="C E"><path d="M70.503 90.913l-32.459-2.831c-.055-2.354-1.418-4.053-3.371-5.458l-6.851 2.394c.198-4.286-4.449-7.535-7.251-11.178 18.206 10.636 34.955 13.069 49.932 17.074z"/><path d="M70.503 90.913l13.479-1.654.617-3.353 3.043-.397 2.23-10.132c-3.525 9.171-11.184 12.712-19.37 15.536z"/></g><path d="M46.05 104.018c3.032 4.323 6.442 6.371 10.749 7.641 5.483 1.617 11.658 1.076 12.085-7.383l-22.833-.258z" class="B D"/><path d="M55.402 97.06c20.706 5.152 20.391 21.301-4.039 8.647 1.314-3.997 2.511-5.962 4.039-8.647z" class="C F"/><g class="D"><path d="M53.112 101.293c1.172 3.77 6.421 6.543 16.37 8.167-2.096 1.78-8.057 1.459-18.119-3.753.593-1.804 1.162-3.185 1.749-4.414zm-.393-6.131l-.002.008c-3.732.435-7.722 1.791-8.15 4.051-.423 2.235 2.244 3.862 3.949 6.721l-.004.008c-14.614-4.139-5.073-12.708 4.207-10.788z" class="B"/></g><path d="M59.293 96.026c1.195 2.081-3.613 11.647-5.695 12.249s-9.816-4.912-9.032-9.053 13.531-5.276 14.726-3.195z" class="C E G"/><path d="M46.487 96.976l3.688 4.879c2.499 3.428 6.147 3.346 6.147 3.346-.137.091-2.604 3.039-2.724 3.074-2.081.602-9.816-4.912-9.031-9.053.257-1.358-.08-1.542 1.92-2.246z" class="B D"/><g class="C"><path d="M34.455 119.163c1.412 1.438 11.502 4.197 13.575 3.393s3.32-10.505 3.32-10.505c-4.968-2.657-7.906-2.635-14.742-3.147 0 0-3.566 8.821-2.154 10.259z" class="E"/><path d="M70.503 90.913c.213 12.884.475 25.792-4.348 36.378"/></g><path d="M4.232 63.592c.313.584 5.332 3.444 11.474 7.514-9.749-3.976 1.805 28.299-2.68 37.364s12.641 14.943 12.641 14.943L2 116.92c5.419-9.04.398-33.438 2.232-53.328z" class="B D"/><path d="M14.259 29.659c-.412.543-.659 1-.839 1.912m1.618-.688c-.468.631-.896 1.389-.987 2.326m-1.537 1.445c-.293.615-.441 1.113-.433 2.043m12.889 71.415c-.727-.652-1.426-1.318-2.6-1.722m4.673 1.273c-.92-.388-1.783-.975-2.6-1.721m42.436 10.999c-.091.694-.241 1.206-.768 2.004m-.685-1.672c-.114.799-.348 1.662-.96 2.413" class="C H I"/><path d="M70.399 64.313c-3.772.817-7.372 6.709 0 7.117-4.204 1.193-6.237 3.516-8.512-.424-2.317-4.013 1.817-5.392 8.229-6.654.098-.019.187-.023.283-.039z" fill="#110c07" class="B"/><g class="D"><path d="M83.887 31.539c-7.603 8.324-5.72 32.944 1.393 37.197-8.412-1.19-10.025-9.121-10.025-18.734 0-9.058 1.431-16.623 8.633-18.463zM16.641 3.7c.737.034 1.568.381 2.428 1.039-3.125 1.273-.035 9.009 4.801 15.092-.77.281-3.781 1.672-4.612 1.818-7.564-11.311-6.16-18.11-2.617-17.949z" class="B"/></g><g class="C"><path d="M22.907 12.606c-.898 3.074-.768 4.998-.05 7.589-.862-2.531-2.046-3.957-3.885-6.233" class="H"/><path d="M44.738 72.566c-13.244 0-23.98-10.736-23.98-23.98s10.736-23.98 23.98-23.98 23.98 10.736 23.98 23.98-10.736 23.98-23.98 23.98z" class="G"/><path d="M72.879 58.184c-1.149-2.017-2.498-3.591-6.222.126" class="I"/></g><path d="M45.047 142.122c-15.878 0-28.75-1.119-28.75-2.5s12.872-2.5 28.75-2.5 28.75 1.119 28.75 2.5-12.872 2.5-28.75 2.5z" class="B D"/></svg>