<?xml version="1.0" encoding="UTF-8"?>
<svg enable-background="new 0 0 98.1 118" version="1.1" viewBox="0 0 98.1 118" xml:space="preserve" xmlns="http://www.w3.org/2000/svg">
<style type="text/css">
    .st0{fill:#FF3E00;}
    .st1{fill:#FFFFFF;}
</style>
<path class="st0" d="m91.8 15.6c-10.9-15.7-32.6-20.3-48.2-10.4l-27.5 17.6c-7.5 4.7-12.7 12.4-14.2 21.1-1.3 7.3-0.2 14.8 3.3 21.3-2.4 3.6-4 7.6-4.7 11.8-1.6 8.9 0.5 18.1 5.7 25.4 11 15.7 32.6 20.3 48.2 10.4l27.5-17.5c7.5-4.7 12.7-12.4 14.2-21.1 1.3-7.3 0.2-14.8-3.3-21.3 2.4-3.6 4-7.6 4.7-11.8 1.7-9-0.4-18.2-5.7-25.5"/>
<path class="st1" d="m40.9 103.9c-8.9 2.3-18.2-1.2-23.4-8.7-3.2-4.4-4.4-9.9-3.5-15.3 0.2-0.9 0.4-1.7 0.6-2.6l0.5-1.6 1.4 1c3.3 2.4 6.9 4.2 10.8 5.4l1 0.3-0.1 1c-0.1 1.4 0.3 2.9 1.1 4.1 1.6 2.3 4.4 3.4 7.1 2.7 0.6-0.2 1.2-0.4 1.7-0.7l27.4-17.5c1.4-0.9 2.3-2.2 2.6-3.8s-0.1-3.3-1-4.6c-1.6-2.3-4.4-3.3-7.1-2.6-0.6 0.2-1.2 0.4-1.7 0.7l-10.5 6.7c-1.7 1.1-3.6 1.9-5.6 2.4-8.9 2.3-18.2-1.2-23.4-8.7-3.1-4.4-4.4-9.9-3.4-15.3 0.9-5.2 4.1-9.9 8.6-12.7l27.5-17.5c1.7-1.1 3.6-1.9 5.6-2.5 8.9-2.3 18.2 1.2 23.4 8.7 3.2 4.4 4.4 9.9 3.5 15.3-0.2 0.9-0.4 1.7-0.7 2.6l-0.5 1.6-1.4-1c-3.3-2.4-6.9-4.2-10.8-5.4l-1-0.3 0.1-1c0.1-1.4-0.3-2.9-1.1-4.1-1.6-2.3-4.4-3.3-7.1-2.6-0.6 0.2-1.2 0.4-1.7 0.7l-27.4 17.5c-1.4 0.9-2.3 2.2-2.6 3.8s0.1 3.3 1 4.6c1.6 2.3 4.4 3.3 7.1 2.6 0.6-0.2 1.2-0.4 1.7-0.7l10.5-6.7c1.7-1.1 3.6-1.9 5.6-2.5 8.9-2.3 18.2 1.2 23.4 8.7 3.2 4.4 4.4 9.9 3.5 15.3-0.9 5.2-4.1 9.9-8.6 12.7l-27.5 17.5c-1.7 1.1-3.6 1.9-5.6 2.5"/>
</svg>
